<?xml version="1.0" encoding="utf-8"?>
<!-- Generator: Adobe Illustrator 21.0.0, SVG Export Plug-In . SVG Version: 6.00 Build 0)  -->
<svg version="1.1" id="图层_1" xmlns="http://www.w3.org/2000/svg" xmlns:xlink="http://www.w3.org/1999/xlink" x="0px" y="0px"
	 viewBox="0 0 18 18" style="enable-background:new 0 0 18 18;" xml:space="preserve">
<style type="text/css">
	.st0{fill:#4285F4;}
</style>
<title>ic_chat_setting_selected</title>
<desc>Created with Sketch.</desc>
<g id="桌面版基础功能模块">
	<g id="_x30_-0-1全屏操作_xFF08_消息提醒_xFF0C_发送loading_xFF09_" transform="translate(-1361.000000, -171.000000)">
		<g id="会话窗口1" transform="translate(280.000000, 130.000000)">
			<g id="头部">
				<path id="ic_chat_setting_selected" class="st0" d="M1097.4,50c0-0.4,0-0.8,0-0.8c0-0.3,0.1-0.7,0.4-0.8l1-0.6
					c0.3-0.1,0.4-0.5,0.2-0.7l-1.9-3.2c-0.2-0.3-0.5-0.3-0.8-0.2l-1,0.6c-0.3,0.1-0.7,0.1-0.9-0.1c0,0-0.3-0.2-0.7-0.4
					c-0.4-0.2-0.7-0.4-0.7-0.4c-0.3-0.1-0.5-0.4-0.5-0.7v-1.1c0-0.3-0.3-0.5-0.6-0.5h-3.8c-0.3,0-0.6,0.2-0.6,0.5v1.1
					c0,0.3-0.2,0.6-0.5,0.7c0,0-0.3,0.1-0.7,0.3c-0.4,0.2-0.7,0.4-0.7,0.4c-0.2,0.2-0.7,0.2-0.9,0.1l-1-0.6
					c-0.3-0.1-0.6-0.1-0.8,0.2l-1.9,3.2c-0.2,0.3-0.1,0.6,0.2,0.7l1,0.6c0.3,0.1,0.4,0.5,0.4,0.8c0,0,0,0.3,0,0.8c0,0.4,0,0.8,0,0.8
					c0,0.3-0.1,0.7-0.4,0.8l-1,0.6c-0.3,0.1-0.4,0.5-0.2,0.7l1.9,3.2c0.2,0.3,0.5,0.3,0.8,0.2l1-0.6c0.3-0.1,0.7-0.1,0.9,0.1
					c0,0,0.2,0.2,0.6,0.4c0.4,0.2,0.8,0.4,0.8,0.4c0.3,0.1,0.5,0.5,0.5,0.7v1.1c0,0.3,0.3,0.5,0.6,0.5h3.8c0.3,0,0.6-0.2,0.6-0.5
					v-1.1c0-0.3,0.2-0.6,0.5-0.7c0,0,0.3-0.1,0.7-0.3c0.4-0.2,0.7-0.4,0.7-0.4c0.2-0.2,0.7-0.2,0.9-0.1l1,0.6
					c0.3,0.1,0.6,0.1,0.8-0.2l1.9-3.2c0.2-0.3,0.1-0.6-0.2-0.7l-1-0.6c-0.3-0.1-0.4-0.5-0.4-0.8C1097.3,50.8,1097.4,50.4,1097.4,50z
					 M1090,53c-1.7,0-3-1.3-3-3s1.3-3,3-3c1.7,0,3,1.3,3,3S1091.7,53,1090,53z"/>
			</g>
		</g>
	</g>
</g>
</svg>
