<?xml version="1.0" encoding="UTF-8"?>
<svg width="18px" height="16px" viewBox="0 0 18 16" version="1.1" xmlns="http://www.w3.org/2000/svg" xmlns:xlink="http://www.w3.org/1999/xlink">
    <!-- Generator: Sketch 57.1 (83088) - https://sketch.com -->
    <title>ic_input_file_unselected</title>
    <desc>Created with Sketch.</desc>
    <g id="FC" stroke="none" stroke-width="1" fill="none" fill-rule="evenodd">
        <g id="1-1-1-聊天页面" transform="translate(-392.000000, -481.000000)" fill="#B3C1D5" fill-rule="nonzero">
            <g id="输入框" transform="translate(334.000000, 466.000000)">
                <g id="Group-11" transform="translate(20.000000, 14.000000)">
                    <g id="分组-2" transform="translate(38.000000, 0.000000)">
                        <path d="M16.0478875,2.74446793 C15.6321221,2.3379418 15.2163567,2.09402613 14.7174383,1.93141568 C14.301673,1.76880523 13.8027545,1.6875 13.3038361,1.6875 C12.8049177,1.6875 12.3059992,1.85011045 11.8070808,2.09402613 C11.3081624,2.3379418 10.892397,2.66316271 10.4766317,3.06968883 L5.65375353,7.70408668 L5.48744739,7.86669713 C5.40429431,7.94800236 5.23798817,8.11061281 5.07168203,8.27322326 C4.90537589,8.43583371 4.73906974,8.59844416 4.5727636,8.76105461 C4.24015131,9.08627552 3.90753903,9.49280164 3.74123289,9.89932777 C3.57492674,10.2245487 3.57492674,10.6310748 3.57492674,10.9562957 C3.57492674,11.2815166 3.65807981,11.6067375 3.82438596,11.8506532 C3.9906921,12.0945689 4.15699824,12.3384845 4.32330439,12.501095 C4.5727636,12.8263159 4.82222281,13.0702316 5.1548351,13.1515368 C5.40429431,13.3141472 5.7369066,13.3954525 6.06951889,13.3954525 C6.40213117,13.3954525 6.81789653,13.3141472 7.15050882,13.1515368 C7.56627417,12.9889263 7.98203953,12.6637054 8.31465182,12.3384845 L13.7196015,7.1349501 C13.8027545,6.97233965 13.8859076,6.8097292 13.8027545,6.72842398 C13.8027545,6.56581353 13.7196015,6.40320308 13.5532953,6.32189785 C13.3869892,6.24059262 13.3038361,6.1592874 13.13753,6.07798217 C12.9712238,5.99667695 12.8049177,6.07798217 12.7217646,6.1592874 L7.39996803,11.3628218 C7.15050882,11.6067375 6.9010496,11.6880427 6.56843732,11.769348 C6.23582503,11.8506532 5.90321274,11.6880427 5.7369066,11.4441271 C5.57060046,11.2002114 5.40429431,10.9562957 5.40429431,10.71238 C5.40429431,10.3871591 5.57060046,10.0619382 5.82005967,9.89932777 L11.7239277,4.20796199 C12.2228462,3.63882541 12.8880707,3.31360451 13.5532953,3.23229928 C14.1353668,3.23229928 14.8005914,3.47621496 15.2163567,3.88274109 C15.465816,4.12665676 15.7152752,4.37057244 15.7984282,4.69579334 C15.9647344,5.02101424 16.0478875,5.26492992 16.0478875,5.59015082 C16.0478875,5.91537172 15.9647344,6.24059262 15.8815813,6.56581353 C15.7152752,6.89103443 15.465816,7.21625533 15.2163567,7.54147623 L8.73041717,13.8832838 C8.39780489,14.2085047 8.0651926,14.4524204 7.64942724,14.6150308 C6.9010496,14.6963361 6.48528424,14.7776413 5.98636582,14.7776413 C5.48744739,14.7776413 4.98852896,14.6963361 4.5727636,14.6150308 C4.07384517,14.4524204 3.65807981,14.1271995 3.24231446,13.8019786 C2.8265491,13.3954525 2.49393681,12.9889263 2.32763067,12.4197898 C2.16132453,12.0132636 2.07817146,11.5254323 2.16132453,11.0376009 C2.16132453,10.5497696 2.32763067,10.1432434 2.49393681,9.73671732 C2.66024296,9.41149642 2.90970217,9.00497029 3.24231446,8.67974939 L9.06302946,3.06968883 C9.14618253,2.90707838 9.2293356,2.74446793 9.14618253,2.66316271 C9.14618253,2.50055225 9.06302946,2.3379418 8.89672332,2.25663658 C8.73041717,2.09402613 8.56411103,2.0127209 8.39780489,2.0127209 C8.23149874,1.93141568 8.0651926,2.0127209 7.98203953,2.09402613 L2.16132453,7.70408668 C1.74555917,8.11061281 1.41294688,8.59844416 1.16348767,9.16758074 C0.914028455,9.73671732 0.747722312,10.3871591 0.664569241,11.0376009 C0.581416169,11.6880427 0.747722312,12.4197898 0.914028455,12.9889263 C1.49609996,14.3711152 2.57708988,15.5093883 4.07384517,15.9972197 C4.73906974,16.2411354 5.40429431,16.3224406 6.15267196,16.3224406 C6.81789653,16.2411354 7.4831211,16.1598301 8.0651926,15.8346092 C8.6472641,15.5906936 9.14618253,15.2654726 9.56194789,14.8589465 L16.1310405,8.51713894 C16.5468059,8.11061281 16.8794182,7.70408668 17.0457243,7.1349501 C17.4614897,6.1592874 17.4614897,5.02101424 17.0457243,4.04535154 C16.7962651,3.55752019 16.4636528,3.15099406 16.0478875,2.74446793 Z" id="ic_input_file_unselected"></path>
                    </g>
                </g>
            </g>
        </g>
    </g>
</svg>