<?xml version="1.0" encoding="UTF-8"?>
<svg width="16px" height="16px" viewBox="0 0 16 16" version="1.1" xmlns="http://www.w3.org/2000/svg" xmlns:xlink="http://www.w3.org/1999/xlink">
    <!-- Generator: Sketch 57.1 (83088) - https://sketch.com -->
    <title>ic_input_screenshot_unselected</title>
    <desc>Created with Sketch.</desc>
    <g id="FC" stroke="none" stroke-width="1" fill="none" fill-rule="evenodd">
        <g id="1-1-1-聊天页面" transform="translate(-431.000000, -481.000000)" fill="#B3C1D5">
            <g id="输入框" transform="translate(334.000000, 466.000000)">
                <g id="Group-11" transform="translate(20.000000, 14.000000)">
                    <g id="分组-3" transform="translate(76.000000, 0.000000)">
                        <path d="M13.6309203,15.5920284 C14.3261896,15.5920284 14.9687466,15.2279535 15.3164657,14.6368267 C15.6640792,14.0457206 15.6640792,13.3175086 15.3164657,12.7263818 C14.9687466,12.1352757 14.3261896,11.7711178 13.6309203,11.7711178 C12.5559371,11.7711178 11.6846225,12.6264648 11.6846225,13.6815628 C11.6846225,14.7366814 12.5559371,15.5920284 13.6309203,15.5920284 L13.6309203,15.5920284 Z M4.36995562,15.5920284 C5.06530936,15.5920284 5.7078664,15.2279535 6.05550103,14.6368267 C6.40322014,14.0457206 6.40322014,13.3175086 6.05550103,12.7263818 C5.7078664,12.1352757 5.06530936,11.7711178 4.36995562,11.7711178 C3.29505691,11.7711178 2.42365783,12.6264648 2.42365783,13.6815628 C2.42365783,14.7366814 3.29505691,15.5920284 4.36995562,15.5920284 L4.36995562,15.5920284 Z M9.11027623,8.43422395 L6.18650022,11.0426778 C7.55359702,11.9500769 8.00864127,13.7203687 7.24382818,15.1558143 C6.47909957,16.59126 4.73822321,17.2342731 3.19911474,16.6498834 C1.6599218,16.065473 0.813104865,14.439895 1.23152932,12.8729612 C1.65001714,11.3059237 3.20027627,10.2971358 4.83357406,10.5289555 L8.14492013,7.57238857 L2.20224957,2.26478864 C1.93710451,2.02795234 1.91771756,1.625 2.15893515,1.36474852 C2.40023722,1.10450844 2.81072105,1.08547861 3.07586611,1.32233564 L9.11027623,6.71227376 L15.1792576,1.29090949 C15.3507836,1.13769661 15.5925714,1.0859554 15.8134939,1.15519244 C16.0344164,1.22434657 16.2008739,1.40403121 16.2502916,1.62637748 C16.2997093,1.8488274 16.2244846,2.08017034 16.0529798,2.23338321 L10.0739006,7.57327995 L13.3610024,10.5085575 C15.0014806,10.3742294 16.4844133,11.467304 16.8103591,13.0512569 C17.1362837,14.6351269 16.201782,16.2075126 14.636782,16.7086727 C13.0716976,17.2098328 11.3723828,16.4808124 10.6840404,15.0129663 C9.99569811,13.545058 10.5366954,11.8039122 11.9423338,10.9628272 L9.11027623,8.43422395 Z" id="ic_input_screenshot_unselected"></path>
                    </g>
                </g>
            </g>
        </g>
    </g>
</svg>