<?xml version="1.0" encoding="UTF-8"?>
<svg width="10px" height="12px" viewBox="0 0 10 12" version="1.1" xmlns="http://www.w3.org/2000/svg" xmlns:xlink="http://www.w3.org/1999/xlink">
    <!-- Generator: Sketch 57.1 (83088) - https://sketch.com -->
    <title>ic_mute</title>
    <desc>Created with Sketch.</desc>
    <g id="FC" stroke="none" stroke-width="1" fill="none" fill-rule="evenodd">
        <g id="1-1-1-聊天页面" transform="translate(-314.000000, -275.000000)" fill="#CCCCCC" fill-rule="nonzero">
            <g id="侧边栏" transform="translate(94.000000, 40.000000)">
                <g id="消息list" transform="translate(0.000000, 81.000000)">
                    <g id="列表-copy-2" transform="translate(0.000000, 120.000000)">
                        <path d="M223.545455,44.5230769 L226.454545,44.5230769 C226.454545,45.6307692 225.818182,46 225,46 C224.22488,46 223.612944,45.6686128 223.550677,44.6918927 L223.545455,44.5230769 L226.454545,44.5230769 Z M228.909091,35.4769231 L229.272727,35.8461538 L229.272727,35.8461538 L228.363636,36.8615385 C228.727273,37.5076923 229,38.3384615 229,39.1692308 L229,39.1692308 L229,42.6769231 C229,43.0461538 229.272727,43.3230769 229.636364,43.3230769 C229.818182,43.3230769 230,43.4153846 230,43.6 L230,43.6 L230,43.7846154 C230,43.9692308 229.818182,44.1538462 229.636364,44.1538462 L229.636364,44.1538462 L221.363636,44.1538462 L220.363636,45.2615385 L220.363636,45.2615385 L220,44.8923077 L220,44.8923077 L228.909091,35.4769231 L228.909091,35.4769231 Z M225.363636,34 C225.783217,34 226.125336,34.3146108 226.175487,34.726025 L226.181818,34.8307692 L226.416371,34.9045072 C226.877663,35.0613582 227.294212,35.2766226 227.704368,35.5892428 L227.909091,35.7538462 L221.454545,42.3076923 L221.454545,38.8 C221.454545,36.9307692 222.637987,35.3190345 224.35277,34.8752285 L224.545455,34.8307692 L224.551785,34.726025 C224.601937,34.3146108 224.944056,34 225.363636,34 Z" id="ic_mute"></path>
                    </g>
                </g>
            </g>
        </g>
    </g>
</svg>