<?xml version="1.0" encoding="utf-8"?>
<!-- Generator: Adobe Illustrator 22.0.1, SVG Export Plug-In . SVG Version: 6.00 Build 0)  -->
<svg version="1.1" id="图层_1" xmlns="http://www.w3.org/2000/svg" xmlns:xlink="http://www.w3.org/1999/xlink" x="0px" y="0px"
	 viewBox="0 0 16 16" style="enable-background:new 0 0 16 16;" xml:space="preserve">
<style type="text/css">
	.st0{fill:#B3C1D5;}
</style>
<path id="ic_input_file_unselected" class="st0" d="M14.3,2.4c-0.4-0.4-0.7-0.6-1.2-0.7c-0.4-0.1-0.8-0.2-1.3-0.2s-0.9,0.1-1.3,0.4
	S9.7,2.4,9.3,2.7L5,6.8L4.9,7C4.8,7.1,4.7,7.2,4.5,7.4C4.4,7.5,4.2,7.6,4.1,7.8c-0.3,0.3-0.6,0.7-0.7,1C3.2,9.1,3.2,9.4,3.2,9.7
	s0.1,0.6,0.2,0.8c0.1,0.2,0.3,0.4,0.4,0.6c0.2,0.3,0.4,0.5,0.7,0.6c0.2,0.1,0.5,0.2,0.8,0.2s0.7-0.1,1-0.2c0.4-0.1,0.7-0.4,1-0.7
	l4.8-4.6c0.1-0.1,0.1-0.3,0.1-0.4c0-0.1-0.1-0.3-0.2-0.4c-0.1-0.1-0.2-0.1-0.4-0.2c-0.1-0.1-0.3,0-0.4,0.1l-4.7,4.6
	c-0.2,0.2-0.4,0.3-0.7,0.4c-0.3,0.1-0.6-0.1-0.7-0.3C5,10,4.8,9.7,4.8,9.5c0-0.3,0.1-0.6,0.4-0.7l5.2-5.1c0.4-0.5,1-0.8,1.6-0.9
	c0.5,0,1.1,0.2,1.5,0.6C13.7,3.7,14,3.9,14,4.2c0.1,0.3,0.2,0.5,0.2,0.8c0,0.3-0.1,0.6-0.1,0.9c-0.1,0.3-0.4,0.6-0.6,0.9l-5.8,5.6
	c-0.3,0.3-0.6,0.5-1,0.7c-0.7,0.1-1,0.1-1.5,0.1c-0.4,0-0.9-0.1-1.3-0.1c-0.4-0.1-0.8-0.4-1.2-0.7c-0.4-0.4-0.7-0.7-0.8-1.2
	c-0.1-0.4-0.2-0.8-0.1-1.2c0-0.4,0.1-0.8,0.3-1.2C2.4,8.4,2.6,8,2.9,7.7l5.2-5c0.1-0.1,0.1-0.3,0.1-0.4c0-0.1-0.1-0.3-0.2-0.4
	C7.8,1.9,7.6,1.8,7.5,1.8c-0.1-0.1-0.3,0-0.4,0.1l-5.2,5C1.6,7.2,1.3,7.6,1,8.1C0.8,8.7,0.7,9.2,0.6,9.8c-0.1,0.6,0.1,1.2,0.2,1.7
	c0.5,1.2,1.5,2.2,2.8,2.7c0.6,0.2,1.2,0.3,1.8,0.3c0.6-0.1,1.2-0.1,1.7-0.4c0.5-0.2,1-0.5,1.3-0.9l5.8-5.6c0.4-0.4,0.7-0.7,0.8-1.2
	c0.4-0.9,0.4-1.9,0-2.7C14.9,3.2,14.6,2.8,14.3,2.4z"/>
</svg>
