<?xml version="1.0" encoding="utf-8"?>
<!-- Generator: Adobe Illustrator 22.0.1, SVG Export Plug-In . SVG Version: 6.00 Build 0)  -->
<svg version="1.1" id="图层_1" xmlns="http://www.w3.org/2000/svg" xmlns:xlink="http://www.w3.org/1999/xlink" x="0px" y="0px"
	 viewBox="0 0 16 16" style="enable-background:new 0 0 16 16;" xml:space="preserve">
<style type="text/css">
	.st0{fill:#B3C1D5;}
</style>
<path id="ic_input_emoji_unselected" class="st0" d="M8,0C3.6,0,0,3.6,0,8s3.6,8,8,8s8-3.6,8-8S12.4,0,8,0z M8,14.7
	c-3.8,0-6.7-3-6.7-6.7s3-6.7,6.7-6.7s6.7,3,6.7,6.7l0,0C14.7,11.8,11.8,14.7,8,14.7L8,14.7z M4.5,5.8c0,0.5,0.4,1,1,1s1-0.4,1-1
	s-0.5-1-1-1l0,0C4.9,4.9,4.5,5.3,4.5,5.8z M9.7,5.8c0,0.5,0.4,1,1,1c0.6,0,1-0.4,1-1s-0.4-1-1-1l0,0C10.2,4.9,9.7,5.3,9.7,5.8z
	 M4.2,9.2C4.2,11.3,5.9,13,8,13s3.8-1.7,3.8-3.8H4.2z"/>
</svg>
