<?xml version="1.0" encoding="utf-8"?>
<!-- Generator: Adobe Illustrator 22.0.1, SVG Export Plug-In . SVG Version: 6.00 Build 0)  -->
<svg version="1.1" id="图层_1" xmlns="http://www.w3.org/2000/svg" xmlns:xlink="http://www.w3.org/1999/xlink" x="0px" y="0px"
	 viewBox="0 0 10 12" style="enable-background:new 0 0 10 12;" xml:space="preserve">
<style type="text/css">
	.st0{fill:#CCCCCC;}
</style>
<path id="Combined-Shape" class="st0" d="M5,12c-0.8,0-1.5-0.4-1.5-1.5h2.9C6.5,11.6,5.8,12,5,12z M6.2,0.8C6.8,1,7.4,1.3,7.9,1.8
	L1.5,8.3V4.8c0-1.9,1.3-3.6,3.1-4C4.5,0.4,4.9,0,5.4,0S6.2,0.4,6.2,0.8z M9.6,9.3c0.2,0,0.4,0.1,0.4,0.3v0.2c0,0.2-0.2,0.4-0.4,0.4
	H1.4l-1,1.1L0,10.9l8.9-9.4l0.4,0.4l-0.9,1C8.7,3.5,9,4.3,9,5.2v3.5C9,9,9.3,9.3,9.6,9.3z"/>
</svg>
