<?xml version="1.0" encoding="utf-8"?>
<!-- Generator: Adobe Illustrator 22.0.1, SVG Export Plug-In . SVG Version: 6.00 Build 0)  -->
<svg version="1.1" id="图层_1" xmlns="http://www.w3.org/2000/svg" xmlns:xlink="http://www.w3.org/1999/xlink" x="0px" y="0px"
	 viewBox="0 0 30 15" style="enable-background:new 0 0 30 15;" xml:space="preserve">
<style type="text/css">
	.st0{fill:#4285F4;}
</style>
<path id="Rectangle-12" class="st0" d="M3,1C1.9,1,1,1.9,1,3v9c0,1.1,0.9,2,2,2h24c1.1,0,2-0.9,2-2V3c0-1.1-0.9-2-2-2H3z M3,0h24
	c1.7,0,3,1.3,3,3v9c0,1.7-1.3,3-3,3H3c-1.7,0-3-1.3-3-3V3C0,1.3,1.3,0,3,0z"/>
<path id="保密" class="st0" d="M7.3,3l0.7,0.3C7.7,4,7.4,4.7,7.1,5.4v6.8H6.3V6.6C6,7,5.6,7.5,5.2,7.9L5,7.1C6,5.9,6.8,4.6,7.3,3z
	 M8.5,3.5h4.7v3.1h-2v1.1h2.9v0.7H12c0.6,1,1.4,1.9,2.3,2.6l-0.5,0.6c-1-0.9-1.8-1.9-2.5-3.2h-0.1v3.8h-0.7V8.4h-0.1
	c-0.7,1.4-1.5,2.5-2.5,3.2L7.5,11c1-0.7,1.7-1.5,2.3-2.6H7.8V7.7h2.8V6.7h-2V3.5z M12.6,6V4.2H9.2V6H12.6z M23.9,3.9v2h-0.7V4.5h-7
	v1.4h-0.7v-2h3.9c-0.1-0.3-0.2-0.5-0.4-0.7L19.8,3c0.1,0.2,0.2,0.5,0.3,0.9H23.9z M19.4,9.2h0.7v2h2.5V9.4h0.7v2.8h-0.7v-0.4H17v0.4
	h-0.7V9.5H17v1.6h2.4V9.2z M19.2,4.7c0.5,0.5,0.8,0.8,1.1,1.2l-0.5,0.4c-0.3-0.4-0.6-0.8-1-1.2L19.2,4.7z M21.8,5l0.5,0.4
	c-0.9,1.1-2.1,2.1-3.6,2.8c0.1,0,0.2,0.1,0.3,0.1h2c0.2,0,0.4,0,0.5-0.1C21.6,8,21.7,7.6,21.7,7l0.7,0.2C22.3,8,22.2,8.5,22,8.6
	c-0.2,0.2-0.5,0.2-0.9,0.2h-2.3c-0.4,0-0.7-0.1-0.8-0.4c-0.8,0.3-1.7,0.6-2.6,0.9l-0.3-0.6c1-0.3,1.9-0.6,2.7-1v-2h0.7v1.7
	C19.9,6.8,20.9,6,21.8,5z M22.6,6c0.7,0.8,1.2,1.5,1.6,2.1l-0.6,0.4c-0.4-0.7-0.9-1.3-1.5-2.1L22.6,6z M16.9,5.4l0.6,0.1
	c-0.3,0.9-0.7,1.7-1.3,2.4l-0.6-0.4C16.2,6.9,16.6,6.2,16.9,5.4z"/>
</svg>
