<?xml version="1.0" encoding="utf-8"?>
<!-- Generator: Adobe Illustrator 22.0.1, SVG Export Plug-In . SVG Version: 6.00 Build 0)  -->
<svg version="1.1" id="图层_1" xmlns="http://www.w3.org/2000/svg" xmlns:xlink="http://www.w3.org/1999/xlink" x="0px" y="0px"
	 viewBox="0 0 18 18" style="enable-background:new 0 0 18 18;" xml:space="preserve">
<style type="text/css">
	.st0{fill:#4285F4;}
	.st1{fill:#FFFFFF;}
</style>
<path id="Fill-3" class="st0" d="M9,0c5,0,9,4,9,9s-4,9-9,9s-9-4-9-9S4,0,9,0"/>
<path id="Stroke-5" class="st1" d="M9,0.5C4.3,0.5,0.5,4.3,0.5,9s3.8,8.5,8.5,8.5s8.5-3.8,8.5-8.5S13.7,0.5,9,0.5z M9,0c5,0,9,4,9,9
	s-4,9-9,9s-9-4-9-9S4,0,9,0z"/>
<path id="Fill-7" class="st1" d="M9.9,7.8h-2L7.6,9.9h2L9.9,7.8z M7.4,11.1l-0.2,1.4h-1l0.2-1.4H5l0.3-1.1h1.3l0.3-2.1H5.6l0.2-1.2
	h1.3L7.3,5h1L8.1,6.7h2L10.4,5h1l-0.3,1.7h1.5l-0.2,1.2h-1.4l-0.3,2.1h1.5l-0.3,1.1h-1.3l-0.2,1.5h-1l0.2-1.5H7.4z"/>
</svg>
