<?xml version="1.0" encoding="utf-8"?>
<!-- Generator: Adobe Illustrator 22.0.1, SVG Export Plug-In . SVG Version: 6.00 Build 0)  -->
<svg version="1.1" id="图层_1" xmlns="http://www.w3.org/2000/svg" xmlns:xlink="http://www.w3.org/1999/xlink" x="0px" y="0px"
	 viewBox="0 0 24 24" style="enable-background:new 0 0 24 24;" xml:space="preserve">
<style type="text/css">
	.st0{fill:#4285F4;}
	.st1{fill:#FFFFFF;}
</style>
<g id="分组-3" transform="translate(10.000000, 5.000000)">
	<circle id="Oval-3" class="st0" cx="2" cy="7" r="12"/>
	<path id="_x40_" class="st1" d="M2.4,2c1.5,0,2.6,0.4,3.5,1.3c0.8,0.8,1.2,1.8,1.2,3c0,1-0.3,1.9-0.9,2.7c-0.6,0.8-1.3,1.2-2,1.2
		c-0.6,0-0.9-0.3-1-0.9c-0.5,0.6-1.1,1-1.8,1C0.8,10.2,0.3,10,0,9.6c-0.4-0.4-0.5-0.9-0.5-1.5c0-1,0.3-1.9,1-2.7
		C1,4.7,1.7,4.3,2.6,4.3c0.7,0,1.1,0.4,1.3,1.1l0.2-0.8H5L4,8.2C3.9,8.6,3.9,8.9,3.9,9.1c0,0.2,0.1,0.4,0.4,0.4
		c0.4,0,0.9-0.3,1.3-0.8c0.5-0.6,0.8-1.4,0.8-2.3c0-1-0.3-1.8-1-2.5C4.6,3.1,3.6,2.8,2.4,2.8C1.1,2.8,0,3.2-0.8,4.1
		C-1.6,4.9-2,6-2,7.3c0,1.4,0.4,2.5,1.2,3.3c0.8,0.7,1.9,1.1,3.2,1.1c1,0,1.8-0.2,2.6-0.5c0.6-0.3,1.2-0.8,1.6-1.3h1
		c-0.5,0.8-1.2,1.5-2.1,1.9c-0.9,0.4-1.9,0.7-3,0.7c-1.7,0-3-0.5-4-1.4C-2.5,10-3,8.8-3,7.2c0-1.5,0.5-2.7,1.5-3.7
		C-0.5,2.5,0.8,2,2.4,2z M2.7,5.2C2.1,5.2,1.6,5.5,1.1,6C0.7,6.6,0.4,7.3,0.4,8.2c0,0.4,0.1,0.7,0.3,0.9s0.4,0.3,0.8,0.3
		c0.4,0,0.7-0.1,1-0.4c0.3-0.3,0.6-0.6,0.7-1l0.3-1.1c0.1-0.4,0.1-0.6,0.1-0.7c0-0.3-0.1-0.5-0.2-0.7C3.2,5.3,3,5.2,2.7,5.2z"/>
</g>
</svg>
