<?xml version="1.0" encoding="utf-8"?>
<!-- Generator: Adobe Illustrator 22.0.1, SVG Export Plug-In . SVG Version: 6.00 Build 0)  -->
<svg version="1.1" id="图层_1" xmlns="http://www.w3.org/2000/svg" xmlns:xlink="http://www.w3.org/1999/xlink" x="0px" y="0px"
	 viewBox="0 0 50 50" style="enable-background:new 0 0 50 50;" xml:space="preserve">
<style type="text/css">
	.st0{fill:#E3E3E3;}
	.st1{fill:#BCBCBC;}
	.st2{fill:#939393;}
</style>
<path id="Shape_1_" class="st0" d="M45,48c0,1.1-0.8,2-1.8,2H6.8c-1,0-1.8-0.9-1.8-2V2c0-1.1,0.8-2,1.8-2h28.8L45,10.5V48z"/>
<path id="Path-18_1_" class="st1" d="M35,0v8.8c0,0,0,0,0,0.1c0,1.2,1,2.1,2.3,2.1H45L35,0z"/>
<g id="Group" transform="translate(15.400000, 28.000000)">
	<path class="st2" d="M11.2,2.1h-12c-0.5,0-0.9-0.4-0.9-0.9s0.4-0.9,0.9-0.9h12c0.5,0,0.9,0.4,0.9,0.9S11.7,2.1,11.2,2.1z"/>
	<path class="st2" d="M19.9-9.2H-0.8c-0.5,0-0.9-0.4-0.9-0.9s0.4-0.9,0.9-0.9h20.6c0.5,0,0.9,0.4,0.9,0.9S20.4-9.2,19.9-9.2z"/>
	<path class="st2" d="M19.9-3.6H-0.8c-0.5,0-0.9-0.4-0.9-0.9s0.4-0.9,0.9-0.9h20.6c0.5,0,0.9,0.4,0.9,0.9S20.4-3.6,19.9-3.6z"/>
</g>
</svg>
