<?xml version="1.0" encoding="utf-8"?>
<!-- Generator: Adobe Illustrator 22.0.1, SVG Export Plug-In . SVG Version: 6.00 Build 0)  -->
<svg version="1.1" id="图层_1" xmlns="http://www.w3.org/2000/svg" xmlns:xlink="http://www.w3.org/1999/xlink" x="0px" y="0px"
	 viewBox="0 0 50 50" style="enable-background:new 0 0 50 50;" xml:space="preserve">
<style type="text/css">
	.st0{fill:#CF6431;}
	.st1{fill:#943421;}
	.st2{fill:#FFFFFF;}
</style>
<path id="Shape" class="st0" d="M45,48c0,1.1-0.8,2-1.8,2H6.8c-1,0-1.8-0.9-1.8-2V2c0-1.1,0.8-2,1.8-2h28.8L45,10.5V48z"/>
<path id="Path-18" class="st1" d="M35,0v8.8c0,0,0,0,0,0.1c0,1.2,1,2.1,2.3,2.1H45L35,0z"/>
<g>
	<path class="st2" d="M25.6,16.9l-1,0.1c-5.8,0.5-10.2,5.3-10.2,11.2c0,6.2,5,11.2,11.2,11.2c5.9,0,10.7-4.4,11.2-10.3l0.1-1H25.6
		V16.9z M34.8,30c-0.9,4.3-4.7,7.5-9.2,7.5c-5.2,0-9.4-4.2-9.4-9.4c0-4.5,3.2-8.3,7.6-9.2V30H34.8z"/>
	<path class="st2" d="M37.4,25.2c-0.5-4.7-4.2-8.4-8.9-8.9l-1-0.1v10h10.1L37.4,25.2z M29.4,24.4v-6c2.9,0.7,5.3,3,6,6H29.4z"/>
</g>
</svg>
