<?xml version="1.0" encoding="utf-8"?>
<!-- Generator: Adobe Illustrator 22.0.1, SVG Export Plug-In . SVG Version: 6.00 Build 0)  -->
<svg version="1.1" id="图层_1" xmlns="http://www.w3.org/2000/svg" xmlns:xlink="http://www.w3.org/1999/xlink" x="0px" y="0px"
	 viewBox="0 0 50 50" style="enable-background:new 0 0 50 50;" xml:space="preserve">
<style type="text/css">
	.st0{fill:#226B40;}
	.st1{fill:#2D4D35;}
	.st2{fill:#FFFFFF;}
</style>
<path id="Shape" class="st0" d="M45,48c0,1.1-0.8,2-1.8,2H6.8c-1,0-1.8-0.9-1.8-2V2c0-1.1,0.8-2,1.8-2h28.8L45,10.5V48z"/>
<path id="Path-18" class="st1" d="M35,0v8.8c0,0,0,0,0,0.1c0,1.2,1,2.1,2.3,2.1H45L35,0z"/>
<path class="st2" d="M33.8,13.8H16.2c-1,0-1.9,0.8-1.9,1.9v18.1c0,1,0.8,1.9,1.9,1.9h17.5c1,0,1.9-0.8,1.9-1.9V15.6
	C35.6,14.6,34.8,13.8,33.8,13.8z M16.2,21.9h4.1v5h-4.1V21.9z M22.2,21.9h11.6v5H22.2V21.9z M33.8,20H22.2v-4.4h11.6V20z M20.3,15.6
	V20h-4.1v-4.4H20.3z M16.2,28.8h4.1v5h-4.1V28.8z M22.2,33.8v-5h11.6v5H22.2z"/>
</svg>
