<?xml version="1.0" encoding="utf-8"?>
<!-- Generator: Adobe Illustrator 22.0.1, SVG Export Plug-In . SVG Version: 6.00 Build 0)  -->
<svg version="1.1" id="图层_1" xmlns="http://www.w3.org/2000/svg" xmlns:xlink="http://www.w3.org/1999/xlink" x="0px" y="0px"
	 viewBox="0 0 50 50" style="enable-background:new 0 0 50 50;" xml:space="preserve">
<style type="text/css">
	.st0{fill:#A4A9AD;}
	.st1{fill:#FFFFFF;}
	.st2{fill:#787D81;}
</style>
<path id="Shape" class="st0" d="M45,48c0,1.1-0.8,2-1.8,2H6.8c-1,0-1.8-0.9-1.8-2V2c0-1.1,0.8-2,1.8-2h28.8L45,10.5V48z"/>
<path id="_x37_z" class="st1" d="M19.7,38.4h5.7v1l-3,7.4h-1.4l3.1-7.3h-4.4V38.4z M26.3,40.7h5.1v0.8l-3.5,4.3h3.7v1h-5.4V46
	l3.5-4.2h-3.4V40.7z"/>
<path id="Combined-Shape" class="st1" d="M26.3,0H30v3.7h-3.8L26.3,0L26.3,0z M26.3,16.2H30V20h-3.8L26.3,16.2L26.3,16.2z M21.9,3.8
	h3.7v3.8h-3.8L21.9,3.8L21.9,3.8z M26.2,8.1H30v3.8h-3.7L26.2,8.1L26.2,8.1z M21.9,23.8v9.9H30v-9.9h-4.1V20h-4.1V23.8z M21.9,15.6
	v-3.8h3.8v3.8H21.9z M25,30.6v-3.8h1.9v3.8H25z"/>
<path id="Path-18" class="st2" d="M35,0v9c0,0,0,0,0,0.1c0,1.2,1,2.2,2.3,2.1H45L35,0z"/>
</svg>
