<?xml version="1.0" encoding="utf-8"?>
<!-- Generator: Adobe Illustrator 22.0.0, SVG Export Plug-In . SVG Version: 6.00 Build 0)  -->
<svg version="1.1" id="图层_1" xmlns="http://www.w3.org/2000/svg" xmlns:xlink="http://www.w3.org/1999/xlink" x="0px" y="0px"
	 viewBox="0 0 22 20" style="enable-background:new 0 0 22 20;" xml:space="preserve">
<style type="text/css">
	.st0{fill:#979797;}
	.st1{fill:none;stroke:#979797;stroke-linecap:round;}
</style>
<title>Group 9</title>
<desc>Created with Sketch.</desc>
<g id="_x32_.1.6其余">
	<g id="_x30_-0-1" transform="translate(-361.000000, -499.000000)">
		<g id="Group-9" transform="translate(361.000000, 499.000000)">
			<circle id="Oval-7" class="st0" cx="6.5" cy="8.5" r="1.5"/>
			<circle id="Oval-7_1_" class="st0" cx="11" cy="11.5" r="1.5"/>
			<circle id="Oval-7_2_" class="st0" cx="15.5" cy="8.5" r="1.5"/>
			<path id="Combined-Shape" class="st0" d="M3,5.6c-1.2,1.5-2,3.1-2,5.3C1,16.4,5.5,19,11,19s10-2.6,10-8.1c0-2.1-0.7-4-1.9-5.4
				C20.2,5.3,21,4.4,21,3.2C21,2,20,1,18.7,1c-1.2,0-2.3,1-2.3,2.2C14.9,2.4,13,1.9,11,1.9S7.1,2.4,5.5,3.2C5.5,2,4.5,1,3.3,1
				C2,1,1,2,1,3.2C1,4.4,1.9,5.4,3,5.6z M0,3.2C0,1.5,1.5,0,3.3,0c1.3,0,2.4,0.7,2.9,1.8C7.7,1.2,9.3,0.9,11,0.9s3.3,0.3,4.8,0.9
				C16.3,0.7,17.4,0,18.7,0C20.5,0,22,1.5,22,3.2c0,1.1-0.5,2-1.3,2.6c0.9,1.5,1.3,3.2,1.3,5c0,5.8-4.5,9.1-11,9.1S0,16.7,0,10.9
				c0-1.8,0.5-3.6,1.3-5C0.5,5.3,0,4.3,0,3.2z"/>
			<path id="Path-3" class="st1" d="M11,13c-0.7,1.3-2,1.7-4,1"/>
			<path id="Path-3_1_" class="st1" d="M11,13c0.7,1.3,2,1.7,4,1"/>
		</g>
	</g>
</g>
</svg>
