<?xml version="1.0" encoding="utf-8"?>
<!-- Generator: Adobe Illustrator 22.0.0, SVG Export Plug-In . SVG Version: 6.00 Build 0)  -->
<svg version="1.1" id="图层_1" xmlns="http://www.w3.org/2000/svg" xmlns:xlink="http://www.w3.org/1999/xlink" x="0px" y="0px"
	 viewBox="0 0 20 20" style="enable-background:new 0 0 20 20;" xml:space="preserve">
<style type="text/css">
	.st0{fill:#979797;}
</style>
<title>Group 4</title>
<desc>Created with Sketch.</desc>
<g id="_x32_.1.6其余">
	<g id="_x30_-0-1" transform="translate(-272.000000, -500.000000)">
		<g id="Group-4" transform="translate(272.000000, 500.000000)">
			<circle id="Oval-4" class="st0" cx="6.5" cy="7.5" r="1.5"/>
			
				<g id="Group-2" transform="translate(13.165064, 7.982051) rotate(-300.000000) translate(-13.165064, -7.982051) translate(11.165064, 5.482051)">
				<path id="Rectangle-6" class="st0" d="M0.8,0.2L0.8,0.2c0.3,0,0.5,0.2,0.5,0.5l0,3c0,0.3-0.2,0.5-0.5,0.5l0,0
					C0.6,4.2,0.3,4,0.3,3.7l0-3C0.3,0.4,0.6,0.2,0.8,0.2z"/>
				<path id="Rectangle-6_1_" class="st0" d="M3.4,1.3L3.4,1.3c0.2,0.2,0.2,0.5,0,0.7L1.3,4.1c-0.2,0.2-0.5,0.2-0.7,0h0
					c-0.2-0.2-0.2-0.5,0-0.7l2.1-2.1C2.9,1.1,3.2,1.1,3.4,1.3z"/>
			</g>
			<path id="Combined-Shape" class="st0" d="M10,20C4.5,20,0,15.5,0,10S4.5,0,10,0s10,4.5,10,10S15.5,20,10,20z M10,19c5,0,9-4,9-9
				s-4-9-9-9s-9,4-9,9S5,19,10,19z"/>
			<path id="Combined-Shape_1_" class="st0" d="M5,12h10c0,2.8-2.2,5-5,5S5,14.8,5,12z"/>
		</g>
	</g>
</g>
</svg>
