<?xml version="1.0" encoding="utf-8"?>
<!-- Generator: Adobe Illustrator 22.0.0, SVG Export Plug-In . SVG Version: 6.00 Build 0)  -->
<svg version="1.1" id="图层_1" xmlns="http://www.w3.org/2000/svg" xmlns:xlink="http://www.w3.org/1999/xlink" x="0px" y="0px"
	 viewBox="0 0 24 20" style="enable-background:new 0 0 24 20;" xml:space="preserve">
<style type="text/css">
	.st0{fill:#4285F4;}
	.st1{fill:none;stroke:#4285F4;stroke-linecap:round;stroke-linejoin:round;}
	.st2{fill:none;stroke:#4285F4;}
</style>
<title>Group 10</title>
<desc>Created with Sketch.</desc>
<g id="_x32_.1.6其余">
	<g id="_x30_-0-1" transform="translate(-386.000000, -487.000000)">
		<g id="Group-10" transform="translate(386.000000, 487.000000)">
			<path id="Rectangle-12" class="st0" d="M4.5,4h5C9.8,4,10,4.2,10,4.5l0,0C10,4.8,9.8,5,9.5,5h-5C4.2,5,4,4.8,4,4.5l0,0
				C4,4.2,4.2,4,4.5,4z"/>
			<path id="Rectangle-12_1_" class="st0" d="M4.5,8h5C9.8,8,10,8.2,10,8.5l0,0C10,8.8,9.8,9,9.5,9h-5C4.2,9,4,8.8,4,8.5l0,0
				C4,8.2,4.2,8,4.5,8z"/>
			<path id="Rectangle-9" class="st0" d="M0.5,19h23c0.3,0,0.5,0.2,0.5,0.5l0,0c0,0.3-0.2,0.5-0.5,0.5h-23C0.2,20,0,19.8,0,19.5l0,0
				C0,19.2,0.2,19,0.5,19z"/>
			<path id="Rectangle-11" class="st0" d="M2,19h10V1H2V19z M12,19h1V7h-1V19z M2,0h10c0.6,0,1,0.4,1,1v19H1V1C1,0.4,1.4,0,2,0z"/>
			<path id="Rectangle-11_1_" class="st0" d="M13,9h5V7h-5V9z M12.9,6h5.2C18.6,6,19,6.1,19,6.3V10h-7V6.3C12,6.1,12.4,6,12.9,6z"/>
			<path id="Path-4" class="st1" d="M20.2,12.5h2l0.1,0.1c0.8,0.8,1.2,1.5,1.2,2.4s-0.4,1.6-1.2,2.4l-0.5,0.5l-0.3-0.6
				c-0.5-1.2-1.4-1.7-2.5-1.7c-1.1,0-2,0.6-2.6,1.7l-0.1,0.3h-2.6l-0.1-0.3c-0.6-1.2-1.4-1.7-2.6-1.7c-1.1,0-1.9,0.5-2.4,1.7
				l-0.1,0.3H8.1c-1.7,0-2.6-0.9-2.6-2.5c0-1.4,0.9-2.2,2.3-2.4c0.4-0.1,0.8-0.1,1.4-0.1c0.5,0,1.5-0.9,2.8-2.8l0.1-0.2h7L20.2,12.5
				z"/>
			<circle id="Oval-8" class="st2" cx="11" cy="17" r="2"/>
			<circle id="Oval-8_1_" class="st2" cx="19" cy="17" r="2"/>
		</g>
	</g>
</g>
</svg>
