<?xml version="1.0" encoding="utf-8"?>
<!-- Generator: Adobe Illustrator 22.0.1, SVG Export Plug-In . SVG Version: 6.00 Build 0)  -->
<svg version="1.1" id="图层_1" xmlns="http://www.w3.org/2000/svg" xmlns:xlink="http://www.w3.org/1999/xlink" x="0px" y="0px"
	 viewBox="0 0 116 116" style="enable-background:new 0 0 116 116;" xml:space="preserve">
<style type="text/css">
	.st0{fill:#D8D8D8;}
	.st1{fill:#FFFFFF;}
</style>
<rect id="Rectangle-2" class="st0" width="116" height="116"/>
<path id="形状_28" class="st1" d="M58.4,59.4c8.5,0,15.4-6.8,15.6-15.2c0-4.1-1.7-8-4.6-10.8c-2.9-2.9-6.9-4.4-11-4.4
	c-8.4,0-15.2,6.8-15.2,15.2S50,59.4,58.4,59.4z M51.9,62.2c-10.8,0-18.9,7.3-18.9,18v1.2c0,5.5,8.7,5.5,19.7,5.5h11.6
	c10.4,0,19.7,0,19.7-5.5v-1.2c0-10.7-8.1-18-18.9-18L51.9,62.2L51.9,62.2z"/>
</svg>
