<?xml version="1.0" encoding="utf-8"?>
<!-- Generator: Adobe Illustrator 22.0.1, SVG Export Plug-In . SVG Version: 6.00 Build 0)  -->
<svg version="1.1" id="图层_1" xmlns="http://www.w3.org/2000/svg" xmlns:xlink="http://www.w3.org/1999/xlink" x="0px" y="0px"
	 viewBox="0 0 16 16" style="enable-background:new 0 0 16 16;" xml:space="preserve">
<style type="text/css">
	.st0{fill:#999999;}
</style>
<path id="合并形状" class="st0" d="M10.3,16L9,14.7c2-1.7,3.2-4.1,3.2-6.8c0-2.6-1.1-5-2.9-6.6L10.5,0C12.7,2,14,4.8,14,7.9
	C14,11.1,12.5,14,10.3,16z M6.8,12.6l-1.3-1.3c1.2-0.7,2-1.9,2-3.4c0-1.3-0.7-2.5-1.7-3.2l1.3-1.3c1.4,1,2.2,2.7,2.2,4.5
	C9.3,9.8,8.3,11.5,6.8,12.6L6.8,12.6z M3.3,9.4C2.6,9.4,2,8.8,2,8.1c0-0.7,0.6-1.3,1.3-1.3c0.7,0,1.3,0.6,1.3,1.3
	C4.6,8.8,4,9.4,3.3,9.4z"/>
</svg>
