<?xml version="1.0" encoding="utf-8"?>
<!-- Generator: Adobe Illustrator 22.0.0, SVG Export Plug-In . SVG Version: 6.00 Build 0)  -->
<svg version="1.1" id="图层_1" xmlns="http://www.w3.org/2000/svg" xmlns:xlink="http://www.w3.org/1999/xlink" x="0px" y="0px"
	 viewBox="0 0 20 20" style="enable-background:new 0 0 20 20;" xml:space="preserve">
<style type="text/css">
	.st0{fill:#979797;}
</style>
<title>Group 8</title>
<desc>Created with Sketch.</desc>
<g id="_x32_.1.6其余">
	<g id="_x30_-0-1" transform="translate(-317.000000, -502.000000)">
		<g id="Group-8" transform="translate(317.000000, 502.000000)">
			<path id="Rectangle-8" class="st0" d="M9.5,4L9.5,4C9.8,4,10,4.2,10,4.5v5C10,9.8,9.8,10,9.5,10l0,0C9.2,10,9,9.8,9,9.5v-5
				C9,4.2,9.2,4,9.5,4z"/>
			<path id="Rectangle-8_1_" class="st0" d="M15,9.5L15,9.5c0,0.3-0.2,0.5-0.5,0.5h-5C9.2,10,9,9.8,9,9.5l0,0C9,9.2,9.2,9,9.5,9h5
				C14.8,9,15,9.2,15,9.5z"/>
			<path id="Combined-Shape" class="st0" d="M10,20C4.5,20,0,15.5,0,10S4.5,0,10,0s10,4.5,10,10S15.5,20,10,20z M10,19c5,0,9-4,9-9
				s-4-9-9-9s-9,4-9,9S5,19,10,19z"/>
		</g>
	</g>
</g>
</svg>
