<?xml version="1.0" encoding="utf-8"?>
<!-- Generator: Adobe Illustrator 22.0.0, SVG Export Plug-In . SVG Version: 6.00 Build 0)  -->
<svg version="1.1" id="图层_1" xmlns="http://www.w3.org/2000/svg" xmlns:xlink="http://www.w3.org/1999/xlink" x="0px" y="0px"
	 viewBox="0 0 20.9 22.5" style="enable-background:new 0 0 20.9 22.5;" xml:space="preserve">
<style type="text/css">
	.st0{fill:none;stroke:#4285F4;stroke-linecap:round;}
	.st1{fill:none;stroke:#4285F4;}
	.st2{fill:#4285F4;}
</style>
<title>Group 11</title>
<desc>Created with Sketch.</desc>
<g id="_x32_.1.6其余">
	<g id="_x30_-0-1" transform="translate(-423.000000, -475.000000)">
		<g id="Group-11" transform="translate(423.000000, 475.000000)">
			<path id="Path-6" class="st0" d="M7,19c-0.4,0.3-0.5,0.7-0.3,1C7,20.5,7,21,6,22"/>
			<path id="Path-6_1_" class="st0" d="M15,19c0,0,0,0.3,0,1c0,1,0.4,1,0,2"/>
			<path id="Rectangle-13" class="st1" d="M6.4,16.5l-0.7,2h2.6l-0.7-2H6.4z"/>
			<path id="Rectangle-13_1_" class="st1" d="M14.4,16.5l-0.7,2h2.6l-0.7-2H14.4z"/>
			<path id="Oval-9" class="st2" d="M7,17c-3.9,0-7-3.8-7-8.5S3.1,0,7,0s7,3.8,7,8.5S10.9,17,7,17z M7,16c3.3,0,6.1-3.3,6.1-7.5
				S10.3,1,7,1S0.9,4.3,0.9,8.5S3.7,16,7,16z"/>
			<path id="Combined-Shape" class="st2" d="M11,15.4c0.2-0.2,0.5-0.5,0.7-0.7c0.9,0.8,2,1.3,3.2,1.3c2.8,0,5-2.5,5-5.5
				S17.7,5,14.9,5c-0.5,0-1,0.1-1.5,0.3c-0.1-0.3-0.2-0.6-0.4-0.9C13.6,4.1,14.3,4,14.9,4c3.3,0,6,2.9,6,6.5s-2.7,6.5-6,6.5
				C13.4,17,12.1,16.4,11,15.4z"/>
		</g>
	</g>
</g>
</svg>
