<?xml version="1.0" encoding="utf-8"?>
<!-- Generator: Adobe Illustrator 22.0.0, SVG Export Plug-In . SVG Version: 6.00 Build 0)  -->
<svg version="1.1" id="图层_1" xmlns="http://www.w3.org/2000/svg" xmlns:xlink="http://www.w3.org/1999/xlink" x="0px" y="0px"
	 viewBox="0 0 21 18" style="enable-background:new 0 0 21 18;" xml:space="preserve">
<style type="text/css">
	.st0{fill:#4285F4;}
	.st1{fill:none;stroke:#4285F4;}
</style>
<title>Group 12</title>
<desc>Created with Sketch.</desc>
<g id="_x32_.1.6其余">
	<g id="_x30_-0-1" transform="translate(-474.000000, -500.000000)">
		<g id="Group-12" transform="translate(475.000000, 500.000000)">
			<path id="Rectangle-15" class="st0" d="M2,4.5h4c0.3,0,0.5,0.2,0.5,0.5l0,0c0,0.3-0.2,0.5-0.5,0.5H2C1.7,5.5,1.5,5.3,1.5,5l0,0
				C1.5,4.7,1.7,4.5,2,4.5z"/>
			<path id="Rectangle-15_1_" class="st0" d="M13,12.5h4c0.3,0,0.5,0.2,0.5,0.5l0,0c0,0.3-0.2,0.5-0.5,0.5h-4
				c-0.3,0-0.5-0.2-0.5-0.5l0,0C12.5,12.7,12.7,12.5,13,12.5z"/>
			<path id="Rectangle-15_2_" class="st0" d="M4.5,3v4c0,0.3-0.2,0.5-0.5,0.5l0,0C3.7,7.5,3.5,7.3,3.5,7V3c0-0.3,0.2-0.5,0.5-0.5
				l0,0C4.3,2.5,4.5,2.7,4.5,3z"/>
			<circle id="Oval-10" class="st1" cx="4" cy="5" r="4.5"/>
			<circle id="Oval-10_1_" class="st1" cx="15" cy="13" r="4.5"/>
			<path id="Rectangle-14" class="st0" d="M18.3,0.3L18.3,0.3c0.2,0.2,0.2,0.5,0,0.7L2.1,17.1c-0.2,0.2-0.5,0.2-0.7,0l0,0
				c-0.2-0.2-0.2-0.5,0-0.7L17.5,0.3C17.7,0.1,18.1,0.1,18.3,0.3z"/>
		</g>
	</g>
</g>
</svg>
