<?xml version="1.0" encoding="UTF-8"?>
<svg width="120px" height="36px" viewBox="0 0 120 36" version="1.1" xmlns="http://www.w3.org/2000/svg" xmlns:xlink="http://www.w3.org/1999/xlink">
    <!-- Generator: Sketch 57.1 (83088) - https://sketch.com -->
    <title>login_logo</title>
    <desc>Created with Sketch.</desc>
    <g id="FC" stroke="none" stroke-width="1" fill="none" fill-rule="evenodd">
        <g id="1-1-4-登录-输入" transform="translate(-515.000000, -166.000000)">
            <g id="编组-2" transform="translate(92.000000, 40.000000)">
                <g id="编组-3" transform="translate(263.000000, 88.000000)">
                    <g id="login_logo" transform="translate(160.000000, 38.000000)">
                        <g id="编组">
                            <g id="logo">
                                <path d="M23.8923766,0 L7.28980644,0 C3.22708899,0 0,3.21596072 0,7.23024747 L0.0152719409,26.0357936 C0.0152719409,26.1664303 0.101363334,26.2927334 0.153835841,26.4125576 C0.202272,26.5231645 0.271338376,26.6237566 0.357626498,26.7089274 L9.06860075,35.3160602 C9.06860075,35.3160602 9.0829522,35.3282908 9.08958975,35.3344947 C9.28360348,35.5197259 9.6741589,35.360643 9.6741589,35.2225932 C9.6741589,35.0845435 9.66949467,34.942835 9.6741589,34.8385207 C9.67765706,34.7601741 9.67075043,34.516842 9.6741589,34.4348617 L9.6741589,7.76482957 C9.6741589,7.09959276 10.5531275,6.58221632 11.2264798,6.58221632 L23.2237391,6.58221632 C23.6074769,6.58221632 24.0025989,6.85129755 24.0025989,7.37593666 L24.0025989,10.0652722 C24.0025989,10.580984 23.6448084,10.8384025 23.2237391,10.8384025 L14.7033455,10.8384025 C14.474832,10.8384025 14.3270224,11.0021396 14.3270224,11.3764491 L14.3270224,15.4892342 C14.3270224,15.9858957 14.4796124,16.262537 14.870057,16.262537 L19.7580015,16.262537 C20.2357951,16.262537 20.5088284,16.6621621 20.5088284,17.0193344 L20.5088284,19.7663653 C20.5088284,20.3415394 20.1829493,20.5225554 19.7580015,20.5225554 L14.8452502,20.5225554 C14.3584066,20.5225554 14.3270224,20.921774 14.3270224,21.2410849 L14.3270224,27.8730232 C14.3270224,28.068801 14.3490365,28.252018 14.7033455,28.2597656 L24.0025989,28.2597656 C28.0654061,28.2597656 31.3666992,25.354603 31.3666992,21.3403163 L31.3666992,7.37593666 C31.3666992,3.3616499 27.9497711,0.0199908065 23.8869639,0.0199908065 L23.8923766,0 Z" id="Fill-2" fill="#4285F4"></path>
                                <path d="M77.5104018,5.37634409 C79.8010033,5.37634409 81.8858749,6.26307814 83.4502104,7.71462656 L83.4502104,7.71462656 L81.5156216,9.67034225 C80.4472802,8.71652883 79.0477711,8.13303026 77.5104018,8.13303026 C74.1635784,8.13303026 71.4506093,10.8756267 71.4506093,14.2589995 C71.4506093,17.6423724 74.1635784,20.3849688 77.5104018,20.3849688 C78.9317261,20.3849688 80.2360964,19.8866212 81.2692911,19.0583902 L81.2692911,19.0583902 L83.2081217,21.0180877 C81.6737822,22.3412971 79.6852613,23.141655 77.5104018,23.141655 C72.657417,23.141655 68.7237027,19.164982 68.7237027,14.2589995 C68.7237027,9.35301704 72.657417,5.37634409 77.5104018,5.37634409 Z M116.11799,5.03476247 L116.11799,9.67034225 L119.627741,9.67034225 L119.627741,12.0004607 L116.11799,12.0004607 L116.11799,18.5051668 C116.11799,19.3840484 116.968192,20.4593479 117.838026,20.5552865 L117.962332,20.5622028 L119.627741,20.5366994 L119.627741,22.836158 L117.962332,22.9079009 C115.628159,22.9079009 113.52046,21.044134 113.401925,18.712113 L113.396673,18.5051668 L113.396673,5.83952873 L116.11799,5.03476247 Z M111.500701,9.11640954 L111.500701,22.9079009 L108.758724,22.9079009 L108.758724,21.2431146 C107.612643,22.2799283 106.122799,22.9079009 104.493159,22.9079009 C100.875653,22.9079009 97.942964,19.8207522 97.942964,16.0121552 C97.942964,12.2035583 100.875653,9.11640954 104.493159,9.11640954 C106.020946,9.11640954 107.425867,9.66833856 108.539855,10.5916378 L108.758724,10.7811958 L108.758724,9.72936471 L111.500701,9.11640954 Z M53.7796591,9.67034225 L53.7796591,22.836158 L51.1084929,22.836158 L51.1084929,9.67034225 L53.7796591,9.67034225 Z M49.5299584,5.03476247 L48.8036322,7.35209803 L41.807692,7.35209803 L41.807692,12.0004607 L48.3841198,12.0004607 L48.3841198,14.323254 L41.807692,14.323254 L41.807692,22.836158 L39.0886821,22.836158 L39.0886821,5.03476247 L49.5299584,5.03476247 Z M62.3455553,9.11640954 C64.8352368,9.11640954 66.9724672,11.1115252 66.9724672,13.5657977 C66.9724672,13.6003276 66.9731351,13.5992745 66.9731351,13.6099916 L66.9724672,13.640814 L66.9724672,22.836158 L64.238549,22.836158 L64.238549,14.0252454 C64.238549,12.8404031 63.0049422,11.8747078 61.5942029,11.8747078 C60.2398931,11.8747078 58.959852,12.6819465 58.8596156,13.7947983 L58.8533109,13.9354602 L58.8533109,22.836158 L56.11703,22.836158 L56.11703,9.67034225 L59.0396046,9.11640954 L59.0396046,10.5461275 C59.8630869,9.66898862 61.0373005,9.11640954 62.3455553,9.11640954 Z M87.8677073,5.03476247 L87.8677073,10.4439107 C88.6911896,9.56728446 90.0228077,9.12447002 91.3310626,9.12447002 C93.7496103,9.12447002 95.8540813,11.0717458 95.9723625,13.4315633 L95.9776021,13.640814 L95.9776021,22.836158 L93.2936303,22.836158 L93.2936303,13.9713317 C93.2936303,12.7871818 91.9904495,11.8811562 90.5797101,11.8811562 C89.2254004,11.8811562 87.9719835,12.7161494 87.8738771,13.8306089 L87.8677073,13.9713317 L87.8677073,22.836158 L85.1659211,22.836158 L85.1659211,5.83952873 L87.8677073,5.03476247 Z M104.798057,11.8747078 C102.581217,11.8747078 100.784063,13.7270583 100.784063,16.0121552 C100.784063,18.2972521 102.581217,20.1496026 104.798057,20.1496026 C107.014898,20.1496026 108.812051,18.2972521 108.812051,16.0121552 C108.812051,13.7270583 107.014898,11.8747078 104.798057,11.8747078 Z M52.5946704,4.9088359 C53.4984912,4.9088359 54.230949,5.64159123 54.230949,6.54511454 C54.230949,7.44863785 53.4984912,8.18139317 52.5946704,8.18139317 C51.6908496,8.18139317 50.9583918,7.44863785 50.9583918,6.54511454 C50.9583918,5.64159123 51.6908496,4.9088359 52.5946704,4.9088359 Z" id="合并形状" fill="#49505D"></path>
                            </g>
                        </g>
                    </g>
                </g>
            </g>
        </g>
    </g>
</svg>