<?xml version="1.0" encoding="utf-8"?>
<!-- Generator: Adobe Illustrator 19.0.0, SVG Export Plug-In . SVG Version: 6.00 Build 0)  -->
<svg version="1.1" id="图层_1" xmlns="http://www.w3.org/2000/svg" xmlns:xlink="http://www.w3.org/1999/xlink" x="0px" y="0px"
	 viewBox="-830 1256.2 40 40" style="enable-background:new -830 1256.2 40 40;" xml:space="preserve">
<style type="text/css">
	.st0{opacity:0.3;enable-background:new    ;}
	.st1{fill:none;stroke:#FFFFFF;}
	.st2{fill:#FFFFFF;}
</style>
<circle id="Oval-4" class="st0" cx="-810" cy="1276.2" r="20"/>
<path id="Combined-Shape" class="st1" d="M-810,1295.7c10.8,0,19.5-8.7,19.5-19.5c0-10.8-8.7-19.5-19.5-19.5s-19.5,8.7-19.5,19.5
	C-829.5,1286.9-820.8,1295.7-810,1295.7z M-810,1295.7c-10.8,0-19.5-8.7-19.5-19.5c0-10.8,8.7-19.5,19.5-19.5s19.5,8.7,19.5,19.5
	C-790.5,1286.9-799.2,1295.7-810,1295.7z"/>
<path id="Fill-1" class="st2" d="M-801.5,1277.1l-11.9,6.9c-0.3,0.2-0.7,0.2-1.1,0c-0.3-0.2-0.5-0.5-0.5-0.9v-13.9
	c0-0.4,0.2-0.7,0.5-0.9c0.3-0.2,0.7-0.2,1.1,0l11.9,6.9c0.3,0.2,0.5,0.6,0.5,0.9C-801,1276.6-801.2,1276.9-801.5,1277.1"/>
</svg>
