<?xml version="1.0" encoding="utf-8"?>
<!-- Generator: Adobe Illustrator 22.0.1, SVG Export Plug-In . SVG Version: 6.00 Build 0)  -->
<svg version="1.1" id="图层_1" xmlns="http://www.w3.org/2000/svg" xmlns:xlink="http://www.w3.org/1999/xlink" x="0px" y="0px"
	 viewBox="0 0 50 50" style="enable-background:new 0 0 50 50;" xml:space="preserve">
<style type="text/css">
	.st0{fill:#6367F0;}
	.st1{fill:#4F52C0;}
	.st2{fill:#FFFFFF;}
</style>
<path id="Shape_1_" class="st0" d="M45,48c0,1.1-0.8,2-1.8,2H6.8c-1,0-1.8-0.9-1.8-2V2c0-1.1,0.8-2,1.8-2h28.8L45,10.5V48z"/>
<path id="Path-18_1_" class="st1" d="M35,0v9c0,0,0,0,0,0.1c0,1.2,1,2.2,2.3,2.1H45L35,0z"/>
<path id="合并形状" class="st2" d="M32.4,30.5c0,1.3-1.1,2.4-2.5,2.4c-1.4,0-2.5-1.1-2.5-2.5c0-1.4,1.1-2.5,2.5-2.5
	c0.5,0,0.9,0.1,1.3,0.4v-9.4l-11.8,1.3v13.2c0,0,0,0,0,0c0,1.4-1.1,2.5-2.5,2.5s-2.5-1.1-2.5-2.5c0-1.4,1.1-2.5,2.5-2.5
	c0.5,0,0.9,0.1,1.3,0.4V18.8c0-0.7,0.5-1.2,1.2-1.2l11.7-1.4h0.1c0.6,0,1.2,0.5,1.2,1.2L32.4,30.5C32.4,30.5,32.4,30.5,32.4,30.5z"
	/>
</svg>
