<?xml version="1.0" encoding="utf-8"?>
<!-- Generator: Adobe Illustrator 22.0.1, SVG Export Plug-In . SVG Version: 6.00 Build 0)  -->
<svg version="1.1" id="图层_1" xmlns="http://www.w3.org/2000/svg" xmlns:xlink="http://www.w3.org/1999/xlink" x="0px" y="0px"
	 viewBox="0 0 50 50" style="enable-background:new 0 0 50 50;" xml:space="preserve">
<style type="text/css">
	.st0{fill:#E3E3E3;}
	.st1{fill:#939393;}
	.st2{fill:#BCBCBC;}
</style>
<path id="Shape_1_" class="st0" d="M45,48c0,1.1-0.8,2-1.8,2H6.8c-1,0-1.8-0.9-1.8-2V2c0-1.1,0.8-2,1.8-2h28.8L45,10.5V48z"/>
<path id="_x3F_" class="st1" d="M25.6,14.4c1.9,0,3.5,0.5,4.6,1.6c1.1,1,1.7,2.4,1.7,4.2c0,1.4-0.4,2.5-1.1,3.5
	c-0.3,0.4-1.1,1.1-2.5,2.3c-0.6,0.5-1.1,1.1-1.4,1.6c-0.4,0.7-0.6,1.4-0.6,2.2v0.7h-2.4v-0.7c0-1,0.2-1.9,0.6-2.6
	c0.4-0.9,1.4-2,3-3.5c0.5-0.5,0.8-0.8,1-1.1c0.6-0.8,0.9-1.5,0.9-2.4c0-1.2-0.3-2.1-1-2.8c-0.7-0.7-1.7-1.1-3-1.1
	c-1.5,0-2.6,0.5-3.3,1.5c-0.6,0.8-1,2-1,3.5h-2.4c0-2.1,0.6-3.8,1.8-5C21.8,15,23.4,14.4,25.6,14.4z M25.1,32.7
	c0.5,0,0.9,0.2,1.3,0.5c0.3,0.3,0.5,0.8,0.5,1.3c0,0.5-0.2,1-0.5,1.3c-0.4,0.3-0.8,0.5-1.3,0.5c-0.5,0-1-0.2-1.3-0.5
	c-0.4-0.4-0.5-0.8-0.5-1.3c0-0.5,0.2-0.9,0.5-1.3C24.2,32.8,24.6,32.7,25.1,32.7z"/>
<path id="Path-18_1_" class="st2" d="M35,0v8.8c0,0,0,0,0,0.1c0,1.2,1,2.1,2.3,2.1H45L35,0z"/>
</svg>
