<?xml version="1.0" encoding="utf-8"?>
<!-- Generator: Adobe Illustrator 22.0.1, SVG Export Plug-In . SVG Version: 6.00 Build 0)  -->
<svg version="1.1" id="图层_1" xmlns="http://www.w3.org/2000/svg" xmlns:xlink="http://www.w3.org/1999/xlink" x="0px" y="0px"
	 viewBox="0 0 50 50" style="enable-background:new 0 0 50 50;" xml:space="preserve">
<style type="text/css">
	.st0{fill:#305FA7;}
	.st1{fill:#263E79;}
	.st2{fill:#FFFFFF;}
</style>
<g id="Page-1">
	<g id="_x31_-1-3搜索-null" transform="translate(-52.000000, -610.000000)">
		<g id="_x31_-copy-2" transform="translate(12.000000, 586.000000)">
			<g id="分组" transform="translate(40.000000, 24.000000)">
				<path id="Shape" class="st0" d="M45,48c0,1.1-0.8,2-1.8,2H6.8c-1,0-1.8-0.9-1.8-2V2c0-1.1,0.8-2,1.8-2h28.8L45,10.5V48z"/>
				<path id="Path-18" class="st1" d="M35,0v8.8c0,0,0,0,0,0.1c0,1.2,1,2.1,2.3,2.1H45L35,0z"/>
				<g id="Group" transform="translate(14.400000, 24.000000)">
					<path class="st2" d="M12.1-7.1h-12c-0.5,0-0.9-0.4-0.9-0.9s0.4-0.9,0.9-0.9h12C12.6-8.9,13-8.5,13-8S12.6-7.1,12.1-7.1z"/>
					<path class="st2" d="M21.2-1.1H0c-0.5,0-0.9-0.4-0.9-0.9S-0.5-2.9,0-2.9h21.1c0.5,0,0.9,0.4,0.9,0.9S21.7-1.1,21.2-1.1z"/>
					<path class="st2" d="M21.2,4.9H0c-0.5,0-0.9-0.4-0.9-0.9S-0.5,3.1,0,3.1h21.1c0.5,0,0.9,0.4,0.9,0.9S21.7,4.9,21.2,4.9z"/>
					<path class="st2" d="M21.2,10.9H0c-0.5,0-0.9-0.4-0.9-0.9S-0.5,9.1,0,9.1h21.1c0.5,0,0.9,0.4,0.9,0.9S21.7,10.9,21.2,10.9z"/>
				</g>
			</g>
		</g>
	</g>
</g>
</svg>
