<?xml version="1.0" encoding="utf-8"?>
<!-- Generator: Adobe Illustrator 22.0.1, SVG Export Plug-In . SVG Version: 6.00 Build 0)  -->
<svg version="1.1" id="图层_1" xmlns="http://www.w3.org/2000/svg" xmlns:xlink="http://www.w3.org/1999/xlink" x="0px" y="0px"
	 viewBox="0 0 50 50" style="enable-background:new 0 0 50 50;" xml:space="preserve">
<style type="text/css">
	.st0{fill:#25B875;}
	.st1{fill:#27945B;}
	.st2{fill:#FFFFFF;}
</style>
<path id="Shape_1_" class="st0" d="M45,48c0,1.1-0.8,2-1.8,2H6.8c-1,0-1.8-0.9-1.8-2V2c0-1.1,0.8-2,1.8-2h28.8L45,10.5V48z"/>
<path id="Path-18_1_" class="st1" d="M35,0v9c0,0,0,0,0,0.1c0,1.2,1,2.2,2.3,2.1H45L35,0z"/>
<g id="分组-6" transform="translate(13.000000, 25.000000)">
	<path id="合并形状" class="st2" d="M19.5,6.2h2.3c0.4,0,0.7,0.1,1,0.3l0.6,0.4c0.2,0.1,0.2,0.3,0.1,0.5
		c-0.1,0.1-0.2,0.2-0.3,0.2H1.4C1.2,7.5,1,7.3,1,7.2C1,7,1.1,6.9,1.2,6.9l0.6-0.4c0.3-0.2,0.7-0.3,1-0.3h1.7v-7.8h1.9v7.8h2.5V-5.1
		h1.9V6.2h2.5V-9.2h1.9V6.2h2.5V-7.2h1.9V6.2z"/>
</g>
</svg>
