<?xml version="1.0" encoding="utf-8"?>
<!-- Generator: Adobe Illustrator 22.0.1, SVG Export Plug-In . SVG Version: 6.00 Build 0)  -->
<svg version="1.1" id="图层_1" xmlns="http://www.w3.org/2000/svg" xmlns:xlink="http://www.w3.org/1999/xlink" x="0px" y="0px"
	 viewBox="0 0 50 50" style="enable-background:new 0 0 50 50;" xml:space="preserve">
<style type="text/css">
	.st0{fill:#1B73E3;}
	.st1{fill:#2657A2;}
	.st2{fill:#FFFFFF;}
</style>
<path id="Shape_1_" class="st0" d="M45,48c0,1.1-0.8,2-1.8,2H6.8c-1,0-1.8-0.9-1.8-2V2c0-1.1,0.8-2,1.8-2h28.8L45,10.5V48z"/>
<path id="Path-18_1_" class="st1" d="M35,0v9c0,0,0,0,0,0.1c0,1.2,1,2.2,2.3,2.1H45L35,0z"/>
<g id="分组-6" transform="translate(18.000000, 25.000000)">
	<path id="矩形" class="st2" d="M1.5-7.5l-1,7h13.8l-1-7H1.5z M0.9-9.4h12.8c0.6,0,1.1,0.5,1.2,1.1l1.2,8.2
		c0.1,0.7-0.4,1.3-1.1,1.4c-0.1,0-0.1,0-0.2,0H-0.3c-0.7,0-1.2-0.6-1.2-1.2c0-0.1,0-0.1,0-0.2l1.2-8.2C-0.2-8.9,0.3-9.4,0.9-9.4z"/>
	<path id="直线-5" class="st2" d="M-0.2-1.4c-0.5,0-0.9-0.4-0.9-0.9s0.4-0.9,0.9-0.9h15c0.5,0,0.9,0.4,0.9,0.9s-0.4,0.9-0.9,0.9
		H-0.2z"/>
	<path id="直线-6" class="st2" d="M6.4,1.3c0-0.5,0.4-0.9,0.9-0.9s0.9,0.4,0.9,0.9v7.7c0,0.5-0.4,0.9-0.9,0.9S6.4,9.6,6.4,9.1V1.3
		z"/>
	<path id="直线-7" class="st2" d="M2.2,10c-0.5,0-0.9-0.4-0.9-0.9c0-0.5,0.4-0.9,0.9-0.9h9.3c0.5,0,0.9,0.4,0.9,0.9
		c0,0.5-0.4,0.9-0.9,0.9H2.2z"/>
</g>
</svg>
