<?xml version="1.0" encoding="utf-8"?>
<!-- Generator: Adobe Illustrator 22.0.1, SVG Export Plug-In . SVG Version: 6.00 Build 0)  -->
<svg version="1.1" id="图层_1" xmlns="http://www.w3.org/2000/svg" xmlns:xlink="http://www.w3.org/1999/xlink" x="0px" y="0px"
	 viewBox="0 0 50 50" style="enable-background:new 0 0 50 50;" xml:space="preserve">
<style type="text/css">
	.st0{fill:#D7401D;}
	.st1{fill:#982C1D;}
	.st2{fill:#FFFFFF;}
</style>
<path id="Shape" class="st0" d="M45,48c0,1.1-0.8,2-1.8,2H6.8c-1,0-1.8-0.9-1.8-2V2c0-1.1,0.8-2,1.8-2h28.8L45,10.5V48z"/>
<path id="Path-18" class="st1" d="M35,0v9c0,0,0,0,0,0.1c0,1.2,1,2.2,2.3,2.1H45L35,0z"/>
<path id="Shape_1_" class="st2" d="M14.3,40L14.3,40c-0.4,0-0.8-0.1-1.1-0.4c-1.2-0.9-1.3-1.9-1.3-2.6c0.2-1.9,2.5-3.8,6.8-5.8
	C20.4,27.5,22,22.9,23,19c-1.1-2.5-2.2-5.7-1.4-7.6c0.3-0.7,0.8-1.1,1.4-1.3c0.3-0.1,0.5-0.1,0.8-0.1c0.6,0,1.1,0.3,1.4,0.7
	c0.3,0.4,1.3,1.7-0.2,8.1c1.5,3.2,3.7,6.4,5.8,8.6c1.5-0.3,2.8-0.4,3.8-0.4c1.8,0,2.9,0.4,3.3,1.3c0.4,0.7,0.2,1.5-0.4,2.5
	c-0.6,0.9-1.5,1.4-2.5,1.4c-1.4,0-3-0.9-4.8-2.6c-3.2,0.7-7,1.9-10,3.2c-1,2-1.9,3.7-2.7,4.8C16.3,39.2,15.3,40,14.3,40L14.3,40z
	 M17.3,34.2c-2.4,1.4-3.4,2.5-3.5,3.1c0,0.1,0,0.4,0.5,0.8C14.5,38,15.4,37.6,17.3,34.2L17.3,34.2z M32.6,29.1
	c0.9,0.7,1.7,1.1,2.4,1.1c0.3,0,0.6-0.1,1-0.6c0.2-0.2,0.2-0.4,0.3-0.5c-0.1-0.1-0.5-0.2-1.6-0.2C34.1,29,33.4,29,32.6,29.1
	L32.6,29.1z M24.3,21.6c-0.8,2.8-1.9,5.9-3,8.6c2.4-0.9,5-1.7,7.4-2.3C27.1,26.1,25.6,23.9,24.3,21.6L24.3,21.6z M23.7,11.9
	c0,0-0.1,0-0.1,0c-0.1,0-0.2,0.1-0.3,0.3c-0.3,0.7-0.1,2,0.4,3.4C24.1,13.2,23.9,12.2,23.7,11.9L23.7,11.9z"/>
</svg>
